<svg width="512" height="512" viewBox="0 0 512 512" fill="none" xmlns="http://www.w3.org/2000/svg">
<path fill-rule="evenodd" clip-rule="evenodd" d="M261.76 507.52C397.49 507.52 507.52 397.49 507.52 261.76C507.52 126.03 397.49 16 261.76 16C126.03 16 16 126.03 16 261.76C16 397.49 126.03 507.52 261.76 507.52ZM232.832 310.912V317.44H275.072V312.832C275.072 301.312 278.144 291.328 284.288 282.88C290.688 274.176 297.984 265.856 306.176 257.92C313.088 251.264 319.744 244.48 326.144 237.568C332.8 230.656 338.176 223.104 342.272 214.912C346.624 206.464 348.8 196.992 348.8 186.496C348.8 173.44 345.472 161.28 338.816 150.016C332.16 138.752 322.432 129.664 309.632 122.752C297.088 115.584 281.984 112 264.32 112C248.704 112 234.624 115.072 222.08 121.216C209.792 127.104 199.552 135.424 191.36 146.176C183.424 156.672 178.304 168.96 176 183.04L216.32 192.64C218.624 180.352 224 170.624 232.448 163.456C241.152 156.032 251.52 152.32 263.552 152.32C272.256 152.32 279.552 153.984 285.44 157.312C291.584 160.384 296.192 164.608 299.264 169.984C302.336 175.104 303.872 180.864 303.872 187.264C303.872 197.504 300.416 206.464 293.504 214.144C286.848 221.824 279.168 229.76 270.464 237.952C264.32 243.84 258.304 250.368 252.416 257.536C246.784 264.448 242.048 272.256 238.208 280.96C234.624 289.664 232.832 299.648 232.832 310.912ZM232.832 352.768V402.688H276.992V352.768H232.832Z" fill="url(#paint0_linear_53_2303)"/>
<defs>
<linearGradient id="paint0_linear_53_2303" x1="261.76" y1="16" x2="261.76" y2="507.52" gradientUnits="userSpaceOnUse">
<stop stop-color="#F8AE39"/>
<stop offset="1" stop-color="#FF4A83"/>
</linearGradient>
</defs>
</svg>
