<svg width="192" height="192" viewBox="0 0 192 192" fill="none" xmlns="http://www.w3.org/2000/svg">
<path fill-rule="evenodd" clip-rule="evenodd" d="M98.16 190.32C149.059 190.32 190.32 149.059 190.32 98.16C190.32 47.2614 149.059 6 98.16 6C47.2614 6 6 47.2614 6 98.16C6 149.059 47.2614 190.32 98.16 190.32ZM87.312 116.592V119.04H103.152V117.312C103.152 112.992 104.304 109.248 106.608 106.08C109.008 102.816 111.744 99.696 114.816 96.72C117.408 94.224 119.904 91.68 122.304 89.088C124.8 86.496 126.816 83.664 128.352 80.592C129.984 77.424 130.8 73.872 130.8 69.936C130.8 65.04 129.552 60.48 127.056 56.256C124.56 52.032 120.912 48.624 116.112 46.032C111.408 43.344 105.744 42 99.12 42C93.264 42 87.984 43.152 83.28 45.456C78.672 47.664 74.832 50.784 71.76 54.816C68.784 58.752 66.864 63.36 66 68.64L81.12 72.24C81.984 67.632 84 63.984 87.168 61.296C90.432 58.512 94.32 57.12 98.832 57.12C102.096 57.12 104.832 57.744 107.04 58.992C109.344 60.144 111.072 61.728 112.224 63.744C113.376 65.664 113.952 67.824 113.952 70.224C113.952 74.064 112.656 77.424 110.064 80.304C107.568 83.184 104.688 86.16 101.424 89.232C99.12 91.44 96.864 93.888 94.656 96.576C92.544 99.168 90.768 102.096 89.328 105.36C87.984 108.624 87.312 112.368 87.312 116.592ZM87.312 132.288V151.008H103.872V132.288H87.312Z" fill="url(#paint0_linear_53_2293)"/>
<defs>
<linearGradient id="paint0_linear_53_2293" x1="98.16" y1="6" x2="98.16" y2="190.32" gradientUnits="userSpaceOnUse">
<stop stop-color="#F8AE39"/>
<stop offset="1" stop-color="#FF4A83"/>
</linearGradient>
</defs>
</svg>
