<svg width="32" height="32" viewBox="0 0 32 32" fill="none" xmlns="http://www.w3.org/2000/svg">
<path fill-rule="evenodd" clip-rule="evenodd" d="M16.36 31.72C24.8431 31.72 31.72 24.8431 31.72 16.36C31.72 7.87691 24.8431 1 16.36 1C7.87691 1 1 7.87691 1 16.36C1 24.8431 7.87691 31.72 16.36 31.72ZM14.552 19.432V19.84H17.192V19.552C17.192 18.832 17.384 18.208 17.768 17.68C18.168 17.136 18.624 16.616 19.136 16.12C19.568 15.704 19.984 15.28 20.384 14.848C20.8 14.416 21.136 13.944 21.392 13.432C21.664 12.904 21.8 12.312 21.8 11.656C21.8 10.84 21.592 10.08 21.176 9.376C20.76 8.672 20.152 8.104 19.352 7.672C18.568 7.224 17.624 7 16.52 7C15.544 7 14.664 7.192 13.88 7.576C13.112 7.944 12.472 8.464 11.96 9.136C11.464 9.792 11.144 10.56 11 11.44L13.52 12.04C13.664 11.272 14 10.664 14.528 10.216C15.072 9.752 15.72 9.52 16.472 9.52C17.016 9.52 17.472 9.624 17.84 9.832C18.224 10.024 18.512 10.288 18.704 10.624C18.896 10.944 18.992 11.304 18.992 11.704C18.992 12.344 18.776 12.904 18.344 13.384C17.928 13.864 17.448 14.36 16.904 14.872C16.52 15.24 16.144 15.648 15.776 16.096C15.424 16.528 15.128 17.016 14.888 17.56C14.664 18.104 14.552 18.728 14.552 19.432ZM14.552 22.048V25.168H17.312V22.048H14.552Z" fill="url(#paint0_linear_53_2287)"/>
<defs>
<linearGradient id="paint0_linear_53_2287" x1="16.36" y1="1" x2="16.36" y2="31.72" gradientUnits="userSpaceOnUse">
<stop stop-color="#F8AE39"/>
<stop offset="1" stop-color="#FF4A83"/>
</linearGradient>
</defs>
</svg>
